<svg xmlns="http://www.w3.org/2000/svg" version="1.1" xmlns:xlink="http://www.w3.org/1999/xlink" xmlns:svgjs="http://svgjs.com/svgjs" width="1454" height="783" preserveAspectRatio="none" viewBox="0 0 1454 783"><g mask="url(&quot;#SvgjsMask1578&quot;)" fill="none"><rect width="1454" height="783" x="0" y="0" fill="rgba(24, 106, 59, 1)"></rect><path d="M0,333.31C64.559,337.678,128.94,320.259,184.481,287.059C241.173,253.171,290.004,205.032,316.099,144.358C341.899,84.37,343.244,16.359,328.238,-47.194C314.015,-107.429,271.773,-153.745,234.113,-202.86C193.986,-255.193,161.764,-318.257,100.91,-343.668C37.643,-370.087,-32.597,-351.321,-100.605,-342.631C-181.045,-332.353,-278.124,-348.268,-332.676,-288.266C-387.146,-228.354,-376.532,-132.471,-364.47,-52.403C-354.361,14.698,-306.351,65.897,-270.63,123.592C-239.724,173.51,-215.516,227.175,-169.108,263.137C-119.87,301.292,-62.149,329.105,0,333.31" fill="#13522d"></path><path d="M1454 1320.069C1558.96 1322.9279999999999 1675.06 1319.365 1754.804 1251.06 1832.675 1184.359 1818.3020000000001 1062.062 1862.965 969.768 1909.086 874.46 2018.301 807.368 2020.739 701.515 2023.2359999999999 593.075 1961.173 484.369 1875.68 417.612 1794.509 354.23 1679.372 380.493 1579.1680000000001 356.717 1485.831 334.571 1401.802 267.423 1307.099 282.703 1208.288 298.646 1123.415 364.122 1058.916 440.658 994.944 516.569 956.533 611.288 946.9259999999999 710.094 937.582 806.192 968.889 898.472 1005.7239999999999 987.721 1043.795 1079.965 1083.383 1175.521 1163.547 1234.954 1246.268 1296.2820000000002 1351.063 1317.2649999999999 1454 1320.069" fill="#1e8249"></path></g><defs><mask id="SvgjsMask1578"><rect width="1454" height="783" fill="#ffffff"></rect></mask></defs></svg>